<svg width="29" height="29" viewBox="0 0 29 29" fill="none" xmlns="http://www.w3.org/2000/svg">
<circle cx="14.5" cy="14.5" r="14.5" fill="white"/>
<g clip-path="url(#clip0_131_1086)">
<path d="M22.8562 14.6565C22.8562 13.971 22.7993 13.4708 22.6761 12.9521H14.6663V16.0459H19.3678C19.2731 16.8147 18.7612 17.9726 17.6237 18.7506L17.6078 18.8542L20.1403 20.7714L20.3158 20.7885C21.9272 19.3342 22.8562 17.1945 22.8562 14.6565Z" fill="#4285F4"/>
<path d="M14.6664 22.8079C16.9697 22.8079 18.9034 22.0668 20.3159 20.7886L17.6238 18.7507C16.9034 19.2416 15.9365 19.5844 14.6664 19.5844C12.4104 19.5844 10.4956 18.1301 9.81304 16.1201L9.71299 16.1284L7.0796 18.1199L7.04517 18.2135C8.44805 20.9367 11.3297 22.8079 14.6664 22.8079Z" fill="#34A853"/>
<path d="M9.81285 16.12C9.63275 15.6013 9.52852 15.0455 9.52852 14.4712C9.52852 13.8969 9.63275 13.3411 9.80338 12.8224L9.79861 12.7119L7.13222 10.6884L7.04498 10.729C6.46678 11.8591 6.13501 13.1281 6.13501 14.4712C6.13501 15.8144 6.46678 17.0833 7.04498 18.2134L9.81285 16.12Z" fill="#FBBC05"/>
<path d="M14.6664 9.35806C16.2683 9.35806 17.3489 10.0343 17.9651 10.5993L20.3727 8.30211C18.894 6.95899 16.9697 6.13458 14.6664 6.13458C11.3297 6.13458 8.44805 8.00568 7.04517 10.729L9.80357 12.8224C10.4956 10.8124 12.4104 9.35806 14.6664 9.35806Z" fill="#EB4335"/>
</g>
<defs>
<clipPath id="clip0_131_1086">
<rect width="16.7308" height="16.7308" fill="white" transform="translate(6.13428 6.13458)"/>
</clipPath>
</defs>
</svg>
