<svg width="30" height="30" viewBox="0 0 30 30" fill="none" xmlns="http://www.w3.org/2000/svg">
<g clip-path="url(#clip0_206_1042)">
<rect width="30" height="30" rx="15" fill="url(#paint0_linear_206_1042)"/>
<path d="M22.25 15.95C23.0612 13.2559 23.5612 8.65 20.15 5.5C17.543 3.0926 10.5 2.85 8.05004 8.1C7.64104 8.9764 8.20004 10.35 9.30004 10.3C9.73234 10.28 10 11.65 10.25 12.5C9.90004 15.95 6.78184 16.0137 5.20004 18.65C3.25004 21.9 5.65004 26.7 11.4 26.7C17.15 26.7 20.4462 21.9405 22.25 15.95Z" fill="url(#paint1_linear_206_1042)"/>
<path d="M24.2002 23.8425C24.9335 25.2549 25.3002 30.4 25.3002 30.4H4.7002C4.7002 30.4 5.0669 25.2549 5.8002 23.8425C6.9002 21.7239 15.0002 19 15.0002 19C15.0002 19 23.1002 21.7239 24.2002 23.8425Z" fill="url(#paint2_linear_206_1042)"/>
<path d="M17.4002 20.2C17.4002 20.2 16.1236 20.9 14.9492 20.9C13.7748 20.9 12.6002 20.2 12.6002 20.2V18C12.3476 18.0399 12.0916 18.0551 11.836 18.0454C9.43722 18.0452 8.53272 14.5511 9.00022 10.3C9.30022 10.3 10.0002 10.3 11.0002 8.90001C10.7502 10.85 13.6502 10.55 14.7502 9.00001C14.2002 10.85 15.6502 12.1 16.9002 11.35C19.3513 9.87931 19.9023 14.3626 17.4002 14.4V20.2Z" fill="url(#paint3_linear_206_1042)"/>
<g style="mix-blend-mode:multiply" opacity="0.782">
<path d="M12.6001 18C13.8406 17.7716 15.0276 17.3138 16.1001 16.65C16.1001 16.65 14.8501 18.8 12.6001 18.8V18Z" fill="#FFD7B8"/>
</g>
<path d="M15.0035 20.7975C15.7262 20.7648 17.4002 20.4108 17.4002 19.646V19C17.5836 19 18.1087 19.4332 18.3788 19.8C19.4464 21.25 18.2622 22.55 17.2964 22.55C16.0778 22.55 15.2702 21.5318 15.0002 21.042C14.7302 21.532 13.9226 22.55 12.704 22.55C11.7382 22.55 10.554 21.25 11.6216 19.8C11.8917 19.4332 12.4168 19 12.6002 19V19.646C12.6002 20.4108 14.3194 20.7648 15.0035 20.7975Z" fill="white"/>
<path d="M14.6001 27.6C14.6001 27.5209 14.6236 27.4436 14.6675 27.3778C14.7115 27.312 14.7739 27.2607 14.847 27.2305C14.9201 27.2002 15.0005 27.1923 15.0781 27.2077C15.1557 27.2231 15.227 27.2612 15.2829 27.3172C15.3389 27.3731 15.377 27.4444 15.3924 27.522C15.4078 27.5996 15.3999 27.68 15.3696 27.7531C15.3394 27.8262 15.2881 27.8886 15.2223 27.9326C15.1565 27.9766 15.0792 28 15.0001 28C14.894 28 14.7923 27.9579 14.7173 27.8829C14.6422 27.8078 14.6001 27.7061 14.6001 27.6ZM14.6001 25.6C14.6001 25.5209 14.6236 25.4436 14.6675 25.3778C14.7115 25.312 14.7739 25.2607 14.847 25.2305C14.9201 25.2002 15.0005 25.1923 15.0781 25.2077C15.1557 25.2231 15.227 25.2612 15.2829 25.3172C15.3389 25.3731 15.377 25.4444 15.3924 25.522C15.4078 25.5996 15.3999 25.68 15.3696 25.7531C15.3394 25.8262 15.2881 25.8886 15.2223 25.9326C15.1565 25.9766 15.0792 26 15.0001 26C14.894 26 14.7923 25.9579 14.7173 25.8829C14.6422 25.8078 14.6001 25.7061 14.6001 25.6ZM14.6001 23.6C14.6001 23.5209 14.6236 23.4436 14.6675 23.3778C14.7115 23.312 14.7739 23.2607 14.847 23.2305C14.9201 23.2002 15.0005 23.1923 15.0781 23.2077C15.1557 23.2231 15.227 23.2612 15.2829 23.3172C15.3389 23.3731 15.377 23.4444 15.3924 23.522C15.4078 23.5996 15.3999 23.68 15.3696 23.7531C15.3394 23.8262 15.2881 23.8886 15.2223 23.9326C15.1565 23.9766 15.0792 24 15.0001 24C14.894 24 14.7923 23.9579 14.7173 23.8829C14.6422 23.8078 14.6001 23.7061 14.6001 23.6V23.6Z" fill="url(#paint4_linear_206_1042)"/>
</g>
<defs>
<linearGradient id="paint0_linear_206_1042" x1="15" y1="30" x2="15" y2="0" gradientUnits="userSpaceOnUse">
<stop stop-color="#FFC9B3"/>
<stop offset="1" stop-color="#FFD2C2"/>
</linearGradient>
<linearGradient id="paint1_linear_206_1042" x1="13.6882" y1="3.85884" x2="13.6882" y2="26.7" gradientUnits="userSpaceOnUse">
<stop stop-color="#130027"/>
<stop offset="1" stop-color="#130017"/>
</linearGradient>
<linearGradient id="paint2_linear_206_1042" x1="15.0002" y1="30.4" x2="15.0002" y2="19" gradientUnits="userSpaceOnUse">
<stop stop-color="#E6864E"/>
<stop offset="1" stop-color="#E67240"/>
</linearGradient>
<linearGradient id="paint3_linear_206_1042" x1="13.9549" y1="8.90001" x2="13.9549" y2="20.9" gradientUnits="userSpaceOnUse">
<stop stop-color="#FFE0CC"/>
<stop offset="1" stop-color="#FFEADB"/>
</linearGradient>
<linearGradient id="paint4_linear_206_1042" x1="15.0001" y1="23.2" x2="15.0001" y2="28" gradientUnits="userSpaceOnUse">
<stop stop-color="#130027"/>
<stop offset="1" stop-color="#130017"/>
</linearGradient>
<clipPath id="clip0_206_1042">
<rect width="30" height="30" rx="15" fill="white"/>
</clipPath>
</defs>
</svg>
